<mxfile host="Electron" modified="2023-06-05T16:30:31.025Z" agent="Mozilla/5.0 (Windows NT 10.0; Win64; x64) AppleWebKit/537.36 (KHTML, like Gecko) draw.io/21.1.2 Chrome/106.0.5249.199 Electron/21.4.3 Safari/537.36" etag="eBn6ZEBYVQfja-CqzQz3" version="21.1.2" type="device">
  <diagram name="Page-1" id="nU-Y2Q5iK9pLF1u6mTTK">
    <mxGraphModel dx="1036" dy="614" grid="1" gridSize="10" guides="1" tooltips="1" connect="1" arrows="1" fold="1" page="1" pageScale="1" pageWidth="850" pageHeight="1100" math="0" shadow="0">
      <root>
        <mxCell id="0" />
        <mxCell id="1" parent="0" />
        <mxCell id="Z3qBMW_nNhR8-l0cdrji-1" value="QuanLy" style="shape=umlActor;verticalLabelPosition=bottom;verticalAlign=top;outlineConnect=0;html=1;" parent="1" vertex="1">
          <mxGeometry x="90" y="270" width="30" height="60" as="geometry" />
        </mxCell>
        <mxCell id="Z3qBMW_nNhR8-l0cdrji-2" value="NhanVien" style="shape=umlActor;verticalLabelPosition=bottom;verticalAlign=top;html=1;outlineConnect=0;" parent="1" vertex="1">
          <mxGeometry x="485" y="900" width="30" height="60" as="geometry" />
        </mxCell>
        <mxCell id="Z3qBMW_nNhR8-l0cdrji-5" value="QuanLyNhanVien" style="ellipse;whiteSpace=wrap;html=1;" parent="1" vertex="1">
          <mxGeometry x="200" y="30" width="120" height="80" as="geometry" />
        </mxCell>
        <mxCell id="Z3qBMW_nNhR8-l0cdrji-6" value="QuanLyMon" style="ellipse;whiteSpace=wrap;html=1;" parent="1" vertex="1">
          <mxGeometry x="200" y="150" width="120" height="80" as="geometry" />
        </mxCell>
        <mxCell id="Z3qBMW_nNhR8-l0cdrji-10" value="QuanLyBanAn" style="ellipse;whiteSpace=wrap;html=1;" parent="1" vertex="1">
          <mxGeometry x="200" y="240" width="120" height="80" as="geometry" />
        </mxCell>
        <mxCell id="Z3qBMW_nNhR8-l0cdrji-12" value="QuanLyHoaDon" style="ellipse;whiteSpace=wrap;html=1;" parent="1" vertex="1">
          <mxGeometry x="190" y="360" width="120" height="80" as="geometry" />
        </mxCell>
        <mxCell id="Z3qBMW_nNhR8-l0cdrji-13" value="LuuHoaDon" style="ellipse;whiteSpace=wrap;html=1;" parent="1" vertex="1">
          <mxGeometry x="170" y="685" width="120" height="80" as="geometry" />
        </mxCell>
        <mxCell id="Z3qBMW_nNhR8-l0cdrji-15" value="DangNhap" style="ellipse;whiteSpace=wrap;html=1;" parent="1" vertex="1">
          <mxGeometry x="425" y="500" width="120" height="80" as="geometry" />
        </mxCell>
        <mxCell id="Z3qBMW_nNhR8-l0cdrji-17" value="DatBan" style="ellipse;whiteSpace=wrap;html=1;" parent="1" vertex="1">
          <mxGeometry x="680" y="690" width="120" height="80" as="geometry" />
        </mxCell>
        <mxCell id="Z3qBMW_nNhR8-l0cdrji-18" value="DatMon" style="ellipse;whiteSpace=wrap;html=1;" parent="1" vertex="1">
          <mxGeometry x="425" y="685" width="120" height="80" as="geometry" />
        </mxCell>
        <mxCell id="Z3qBMW_nNhR8-l0cdrji-19" value="Server" style="shape=umlActor;verticalLabelPosition=bottom;verticalAlign=top;html=1;outlineConnect=0;" parent="1" vertex="1">
          <mxGeometry x="790" y="280" width="30" height="60" as="geometry" />
        </mxCell>
        <mxCell id="Z3qBMW_nNhR8-l0cdrji-20" value="Luu" style="ellipse;whiteSpace=wrap;html=1;" parent="1" vertex="1">
          <mxGeometry x="610" y="370" width="120" height="80" as="geometry" />
        </mxCell>
        <mxCell id="Z3qBMW_nNhR8-l0cdrji-23" value="" style="endArrow=classic;html=1;rounded=0;entryX=0;entryY=0.5;entryDx=0;entryDy=0;" parent="1" target="Z3qBMW_nNhR8-l0cdrji-5" edge="1">
          <mxGeometry width="50" height="50" relative="1" as="geometry">
            <mxPoint x="120" y="290" as="sourcePoint" />
            <mxPoint x="160" y="100" as="targetPoint" />
          </mxGeometry>
        </mxCell>
        <mxCell id="Z3qBMW_nNhR8-l0cdrji-25" value="" style="endArrow=classic;html=1;rounded=0;entryX=0;entryY=0.5;entryDx=0;entryDy=0;exitX=1;exitY=0.3333333333333333;exitDx=0;exitDy=0;exitPerimeter=0;" parent="1" source="Z3qBMW_nNhR8-l0cdrji-1" target="Z3qBMW_nNhR8-l0cdrji-6" edge="1">
          <mxGeometry width="50" height="50" relative="1" as="geometry">
            <mxPoint x="90" y="280" as="sourcePoint" />
            <mxPoint x="160" y="140" as="targetPoint" />
          </mxGeometry>
        </mxCell>
        <mxCell id="Z3qBMW_nNhR8-l0cdrji-37" value="" style="endArrow=classic;html=1;rounded=0;dashed=1;entryX=1;entryY=0.5;entryDx=0;entryDy=0;exitX=0.5;exitY=0;exitDx=0;exitDy=0;" parent="1" source="Z3qBMW_nNhR8-l0cdrji-15" target="Z3qBMW_nNhR8-l0cdrji-5" edge="1">
          <mxGeometry width="50" height="50" relative="1" as="geometry">
            <mxPoint x="580" y="270" as="sourcePoint" />
            <mxPoint x="370" y="20" as="targetPoint" />
          </mxGeometry>
        </mxCell>
        <mxCell id="Z3qBMW_nNhR8-l0cdrji-39" value="" style="endArrow=classic;html=1;rounded=0;dashed=1;entryX=1;entryY=0.5;entryDx=0;entryDy=0;exitX=0.5;exitY=0;exitDx=0;exitDy=0;" parent="1" source="Z3qBMW_nNhR8-l0cdrji-15" target="Z3qBMW_nNhR8-l0cdrji-12" edge="1">
          <mxGeometry width="50" height="50" relative="1" as="geometry">
            <mxPoint x="440" y="480" as="sourcePoint" />
            <mxPoint x="370" y="410" as="targetPoint" />
          </mxGeometry>
        </mxCell>
        <mxCell id="Z3qBMW_nNhR8-l0cdrji-46" value="" style="endArrow=classic;html=1;rounded=0;dashed=1;entryX=1;entryY=0.5;entryDx=0;entryDy=0;exitX=0.5;exitY=0;exitDx=0;exitDy=0;" parent="1" source="Z3qBMW_nNhR8-l0cdrji-15" target="Z3qBMW_nNhR8-l0cdrji-6" edge="1">
          <mxGeometry width="50" height="50" relative="1" as="geometry">
            <mxPoint x="530" y="310" as="sourcePoint" />
            <mxPoint x="370" y="150" as="targetPoint" />
          </mxGeometry>
        </mxCell>
        <mxCell id="Z3qBMW_nNhR8-l0cdrji-47" value="" style="endArrow=classic;html=1;rounded=0;dashed=1;entryX=1;entryY=0;entryDx=0;entryDy=0;exitX=0;exitY=1;exitDx=0;exitDy=0;" parent="1" source="Z3qBMW_nNhR8-l0cdrji-20" target="Z3qBMW_nNhR8-l0cdrji-15" edge="1">
          <mxGeometry width="50" height="50" relative="1" as="geometry">
            <mxPoint x="570" y="440" as="sourcePoint" />
            <mxPoint x="660" y="490" as="targetPoint" />
          </mxGeometry>
        </mxCell>
        <mxCell id="Z3qBMW_nNhR8-l0cdrji-49" value="&amp;lt;&amp;lt;include&amp;gt;&amp;gt;" style="text;html=1;strokeColor=none;fillColor=none;align=center;verticalAlign=middle;whiteSpace=wrap;rounded=0;rotation=70;" parent="1" vertex="1">
          <mxGeometry x="380" y="190" width="60" height="30" as="geometry" />
        </mxCell>
        <mxCell id="Z3qBMW_nNhR8-l0cdrji-54" value="&amp;lt;&amp;lt;include&amp;gt;&amp;gt;" style="text;html=1;strokeColor=none;fillColor=none;align=center;verticalAlign=middle;whiteSpace=wrap;rounded=0;rotation=65;" parent="1" vertex="1">
          <mxGeometry x="340" y="230" width="60" height="30" as="geometry" />
        </mxCell>
        <mxCell id="Z3qBMW_nNhR8-l0cdrji-58" value="&amp;lt;&amp;lt;include&amp;gt;&amp;gt;" style="text;html=1;strokeColor=none;fillColor=none;align=center;verticalAlign=middle;whiteSpace=wrap;rounded=0;rotation=-40;" parent="1" vertex="1">
          <mxGeometry x="580" y="470" width="60" height="30" as="geometry" />
        </mxCell>
        <mxCell id="4TaiKKC9BZ7wTvCY-Sat-2" value="" style="endArrow=classic;html=1;rounded=0;entryX=0;entryY=0.5;entryDx=0;entryDy=0;exitX=1;exitY=0.3333333333333333;exitDx=0;exitDy=0;exitPerimeter=0;" parent="1" source="Z3qBMW_nNhR8-l0cdrji-1" target="Z3qBMW_nNhR8-l0cdrji-10" edge="1">
          <mxGeometry width="50" height="50" relative="1" as="geometry">
            <mxPoint x="140" y="280" as="sourcePoint" />
            <mxPoint x="200" y="204.5" as="targetPoint" />
          </mxGeometry>
        </mxCell>
        <mxCell id="4TaiKKC9BZ7wTvCY-Sat-3" value="" style="endArrow=classic;html=1;rounded=0;dashed=1;entryX=1;entryY=0.5;entryDx=0;entryDy=0;exitX=0.5;exitY=0;exitDx=0;exitDy=0;" parent="1" source="Z3qBMW_nNhR8-l0cdrji-15" target="Z3qBMW_nNhR8-l0cdrji-10" edge="1">
          <mxGeometry width="50" height="50" relative="1" as="geometry">
            <mxPoint x="590" y="370" as="sourcePoint" />
            <mxPoint x="440" y="329.5" as="targetPoint" />
          </mxGeometry>
        </mxCell>
        <mxCell id="4TaiKKC9BZ7wTvCY-Sat-5" value="&amp;lt;&amp;lt;include&amp;gt;&amp;gt;" style="text;html=1;strokeColor=none;fillColor=none;align=center;verticalAlign=middle;whiteSpace=wrap;rounded=0;rotation=50;" parent="1" vertex="1">
          <mxGeometry x="330" y="350" width="60" height="30" as="geometry" />
        </mxCell>
        <mxCell id="4TaiKKC9BZ7wTvCY-Sat-11" value="" style="endArrow=classic;html=1;rounded=0;entryX=1;entryY=0;entryDx=0;entryDy=0;" parent="1" target="Z3qBMW_nNhR8-l0cdrji-20" edge="1">
          <mxGeometry width="50" height="50" relative="1" as="geometry">
            <mxPoint x="790" y="300" as="sourcePoint" />
            <mxPoint x="840" y="250" as="targetPoint" />
          </mxGeometry>
        </mxCell>
        <mxCell id="4TaiKKC9BZ7wTvCY-Sat-13" value="" style="endArrow=classic;html=1;rounded=0;entryX=0.267;entryY=0.047;entryDx=0;entryDy=0;entryPerimeter=0;exitX=1;exitY=0.3333333333333333;exitDx=0;exitDy=0;exitPerimeter=0;" parent="1" source="Z3qBMW_nNhR8-l0cdrji-1" target="Z3qBMW_nNhR8-l0cdrji-12" edge="1">
          <mxGeometry width="50" height="50" relative="1" as="geometry">
            <mxPoint x="140" y="290" as="sourcePoint" />
            <mxPoint x="145" y="190" as="targetPoint" />
          </mxGeometry>
        </mxCell>
        <mxCell id="4TaiKKC9BZ7wTvCY-Sat-14" value="" style="endArrow=classic;html=1;rounded=0;entryX=0.5;entryY=1;entryDx=0;entryDy=0;exitX=0;exitY=0.3333333333333333;exitDx=0;exitDy=0;exitPerimeter=0;" parent="1" source="Z3qBMW_nNhR8-l0cdrji-2" target="Z3qBMW_nNhR8-l0cdrji-18" edge="1">
          <mxGeometry width="50" height="50" relative="1" as="geometry">
            <mxPoint x="495" y="890" as="sourcePoint" />
            <mxPoint x="540" y="845" as="targetPoint" />
          </mxGeometry>
        </mxCell>
        <mxCell id="4TaiKKC9BZ7wTvCY-Sat-15" value="" style="endArrow=classic;html=1;rounded=0;entryX=0;entryY=1;entryDx=0;entryDy=0;exitX=1;exitY=0.3333333333333333;exitDx=0;exitDy=0;exitPerimeter=0;" parent="1" source="Z3qBMW_nNhR8-l0cdrji-2" target="Z3qBMW_nNhR8-l0cdrji-17" edge="1">
          <mxGeometry width="50" height="50" relative="1" as="geometry">
            <mxPoint x="530" y="950" as="sourcePoint" />
            <mxPoint x="560" y="870" as="targetPoint" />
          </mxGeometry>
        </mxCell>
        <mxCell id="4TaiKKC9BZ7wTvCY-Sat-16" value="" style="endArrow=classic;html=1;rounded=0;dashed=1;exitX=0.5;exitY=1;exitDx=0;exitDy=0;entryX=0.5;entryY=0;entryDx=0;entryDy=0;" parent="1" source="Z3qBMW_nNhR8-l0cdrji-15" target="Z3qBMW_nNhR8-l0cdrji-18" edge="1">
          <mxGeometry width="50" height="50" relative="1" as="geometry">
            <mxPoint x="500" y="680" as="sourcePoint" />
            <mxPoint x="520" y="660" as="targetPoint" />
          </mxGeometry>
        </mxCell>
        <mxCell id="4TaiKKC9BZ7wTvCY-Sat-17" value="" style="endArrow=classic;html=1;rounded=0;dashed=1;entryX=0;entryY=0;entryDx=0;entryDy=0;exitX=1;exitY=1;exitDx=0;exitDy=0;" parent="1" source="Z3qBMW_nNhR8-l0cdrji-15" target="Z3qBMW_nNhR8-l0cdrji-17" edge="1">
          <mxGeometry width="50" height="50" relative="1" as="geometry">
            <mxPoint x="560" y="600" as="sourcePoint" />
            <mxPoint x="820" y="538" as="targetPoint" />
          </mxGeometry>
        </mxCell>
        <mxCell id="4TaiKKC9BZ7wTvCY-Sat-19" value="&amp;lt;&amp;lt;include&amp;gt;&amp;gt;" style="text;html=1;strokeColor=none;fillColor=none;align=center;verticalAlign=middle;whiteSpace=wrap;rounded=0;rotation=30;" parent="1" vertex="1">
          <mxGeometry x="320" y="430" width="60" height="40" as="geometry" />
        </mxCell>
        <mxCell id="4TaiKKC9BZ7wTvCY-Sat-20" value="&amp;lt;&amp;lt;include&amp;gt;&amp;gt;" style="text;html=1;strokeColor=none;fillColor=none;align=center;verticalAlign=middle;whiteSpace=wrap;rounded=0;rotation=40;" parent="1" vertex="1">
          <mxGeometry x="630" y="610" width="60" height="30" as="geometry" />
        </mxCell>
        <mxCell id="4TaiKKC9BZ7wTvCY-Sat-21" value="&amp;lt;&amp;lt;include&amp;gt;&amp;gt;" style="text;html=1;strokeColor=none;fillColor=none;align=center;verticalAlign=middle;whiteSpace=wrap;rounded=0;rotation=0;" parent="1" vertex="1">
          <mxGeometry x="420" y="620" width="60" height="30" as="geometry" />
        </mxCell>
        <mxCell id="FY5omkkhS4HHzK7vrnrj-1" value="DangKy" style="ellipse;whiteSpace=wrap;html=1;" parent="1" vertex="1">
          <mxGeometry x="670" y="500" width="120" height="80" as="geometry" />
        </mxCell>
        <mxCell id="FY5omkkhS4HHzK7vrnrj-2" value="" style="endArrow=classic;html=1;rounded=0;dashed=1;entryX=1;entryY=0.5;entryDx=0;entryDy=0;exitX=0;exitY=0.5;exitDx=0;exitDy=0;" parent="1" source="FY5omkkhS4HHzK7vrnrj-1" target="Z3qBMW_nNhR8-l0cdrji-15" edge="1">
          <mxGeometry width="50" height="50" relative="1" as="geometry">
            <mxPoint x="660" y="510" as="sourcePoint" />
            <mxPoint x="680" y="480" as="targetPoint" />
          </mxGeometry>
        </mxCell>
        <mxCell id="FY5omkkhS4HHzK7vrnrj-3" value="&amp;lt;&amp;lt;extend&amp;gt;&amp;gt;" style="text;html=1;strokeColor=none;fillColor=none;align=center;verticalAlign=middle;whiteSpace=wrap;rounded=0;rotation=0;" parent="1" vertex="1">
          <mxGeometry x="580" y="540" width="60" height="30" as="geometry" />
        </mxCell>
        <mxCell id="FY5omkkhS4HHzK7vrnrj-4" value="QuanLyKhachHang" style="ellipse;whiteSpace=wrap;html=1;" parent="1" vertex="1">
          <mxGeometry x="120" y="480" width="120" height="80" as="geometry" />
        </mxCell>
        <mxCell id="FY5omkkhS4HHzK7vrnrj-5" value="" style="endArrow=classic;html=1;rounded=0;exitX=1;exitY=0.3333333333333333;exitDx=0;exitDy=0;exitPerimeter=0;entryX=0.5;entryY=0;entryDx=0;entryDy=0;" parent="1" source="Z3qBMW_nNhR8-l0cdrji-1" target="FY5omkkhS4HHzK7vrnrj-4" edge="1">
          <mxGeometry width="50" height="50" relative="1" as="geometry">
            <mxPoint x="115" y="310" as="sourcePoint" />
            <mxPoint x="180" y="525" as="targetPoint" />
          </mxGeometry>
        </mxCell>
        <mxCell id="FY5omkkhS4HHzK7vrnrj-6" value="" style="endArrow=classic;html=1;rounded=0;dashed=1;entryX=1;entryY=0.5;entryDx=0;entryDy=0;exitX=0.5;exitY=0;exitDx=0;exitDy=0;" parent="1" source="Z3qBMW_nNhR8-l0cdrji-15" target="FY5omkkhS4HHzK7vrnrj-4" edge="1">
          <mxGeometry width="50" height="50" relative="1" as="geometry">
            <mxPoint x="290" y="530" as="sourcePoint" />
            <mxPoint x="398" y="601" as="targetPoint" />
          </mxGeometry>
        </mxCell>
        <mxCell id="FY5omkkhS4HHzK7vrnrj-7" value="&amp;lt;&amp;lt;include&amp;gt;&amp;gt;" style="text;html=1;strokeColor=none;fillColor=none;align=center;verticalAlign=middle;whiteSpace=wrap;rounded=0;rotation=0;" parent="1" vertex="1">
          <mxGeometry x="320" y="520" width="60" height="30" as="geometry" />
        </mxCell>
        <mxCell id="7Cv1lEFR13zZQlwH4GzW-1" value="" style="endArrow=classic;html=1;rounded=0;dashed=1;entryX=0;entryY=0.5;entryDx=0;entryDy=0;exitX=1;exitY=0.5;exitDx=0;exitDy=0;" parent="1" source="Z3qBMW_nNhR8-l0cdrji-13" target="Z3qBMW_nNhR8-l0cdrji-18" edge="1">
          <mxGeometry width="50" height="50" relative="1" as="geometry">
            <mxPoint x="340" y="624.5" as="sourcePoint" />
            <mxPoint x="240" y="624.5" as="targetPoint" />
          </mxGeometry>
        </mxCell>
        <mxCell id="7Cv1lEFR13zZQlwH4GzW-2" value="&amp;lt;&amp;lt;include&amp;gt;&amp;gt;" style="text;html=1;strokeColor=none;fillColor=none;align=center;verticalAlign=middle;whiteSpace=wrap;rounded=0;rotation=0;" parent="1" vertex="1">
          <mxGeometry x="340" y="685" width="60" height="30" as="geometry" />
        </mxCell>
        <mxCell id="7Cv1lEFR13zZQlwH4GzW-3" value="XoaMon" style="ellipse;whiteSpace=wrap;html=1;" parent="1" vertex="1">
          <mxGeometry x="260" y="850" width="120" height="80" as="geometry" />
        </mxCell>
        <mxCell id="7Cv1lEFR13zZQlwH4GzW-4" value="" style="endArrow=classic;html=1;rounded=0;dashed=1;entryX=0;entryY=1;entryDx=0;entryDy=0;exitX=1;exitY=0.5;exitDx=0;exitDy=0;" parent="1" source="7Cv1lEFR13zZQlwH4GzW-3" target="Z3qBMW_nNhR8-l0cdrji-18" edge="1">
          <mxGeometry width="50" height="50" relative="1" as="geometry">
            <mxPoint x="300" y="735" as="sourcePoint" />
            <mxPoint x="435" y="735" as="targetPoint" />
          </mxGeometry>
        </mxCell>
        <mxCell id="7Cv1lEFR13zZQlwH4GzW-5" value="&amp;lt;&amp;lt;extend&amp;gt;&amp;gt;" style="text;html=1;strokeColor=none;fillColor=none;align=center;verticalAlign=middle;whiteSpace=wrap;rounded=0;rotation=0;" parent="1" vertex="1">
          <mxGeometry x="350" y="790" width="60" height="30" as="geometry" />
        </mxCell>
        <mxCell id="7Cv1lEFR13zZQlwH4GzW-6" value="" style="endArrow=classic;html=1;rounded=0;dashed=1;entryX=0.5;entryY=1;entryDx=0;entryDy=0;exitX=0.5;exitY=0;exitDx=0;exitDy=0;" parent="1" source="7Cv1lEFR13zZQlwH4GzW-3" target="Z3qBMW_nNhR8-l0cdrji-13" edge="1">
          <mxGeometry width="50" height="50" relative="1" as="geometry">
            <mxPoint x="360" y="880" as="sourcePoint" />
            <mxPoint x="453" y="763" as="targetPoint" />
          </mxGeometry>
        </mxCell>
        <mxCell id="7Cv1lEFR13zZQlwH4GzW-7" value="&amp;lt;&amp;lt;extend&amp;gt;&amp;gt;" style="text;html=1;strokeColor=none;fillColor=none;align=center;verticalAlign=middle;whiteSpace=wrap;rounded=0;rotation=0;" parent="1" vertex="1">
          <mxGeometry x="210" y="800" width="60" height="30" as="geometry" />
        </mxCell>
      </root>
    </mxGraphModel>
  </diagram>
</mxfile>
